<svg xmlns="http://www.w3.org/2000/svg" xmlns:xlink="http://www.w3.org/1999/xlink">
<symbol id="facebook" width="10" height="19" viewBox="0 0 10 19">
    <path d="M9.18359 10.375L9.67578 7.14062H6.54688V5.03125C6.54688 4.11719 6.96875 3.27344 8.375 3.27344H9.81641V0.496094C9.81641 0.496094 8.51562 0.25 7.28516 0.25C4.71875 0.25 3.03125 1.83203 3.03125 4.64453V7.14062H0.148438V10.375H3.03125V18.25H6.54688V10.375H9.18359Z"/>
    </symbol>
    
<symbol id='telegram' viewBox="0 0 24 24" width="24px" height="24px">
    <path d="M 20.302734 2.984375 C 20.013769 2.996945 19.748583 3.080055 19.515625 3.171875 C 19.300407 3.256634 18.52754 3.5814726 17.296875 4.0976562 C 16.06621 4.61384 14.435476 5.2982348 12.697266 6.0292969 C 9.2208449 7.4914211 5.314238 9.1361259 3.3125 9.9785156 C 3.243759 10.007156 2.9645852 10.092621 2.65625 10.328125 C 2.3471996 10.564176 2.0039062 11.076462 2.0039062 11.636719 C 2.0039062 12.088671 2.2295201 12.548966 2.5019531 12.8125 C 2.7743861 13.076034 3.0504903 13.199244 3.28125 13.291016 L 3.28125 13.289062 C 4.0612776 13.599827 6.3906939 14.531938 6.9453125 14.753906 C 7.1420423 15.343433 7.9865895 17.867278 8.1875 18.501953 L 8.1855469 18.501953 C 8.3275588 18.951162 8.4659791 19.243913 8.6582031 19.488281 C 8.7543151 19.610465 8.8690398 19.721184 9.0097656 19.808594 C 9.0637596 19.842134 9.1235454 19.868148 9.1835938 19.892578 C 9.191962 19.896131 9.2005867 19.897012 9.2089844 19.900391 L 9.1855469 19.894531 C 9.2029579 19.901531 9.2185841 19.911859 9.2363281 19.917969 C 9.2652427 19.927926 9.2852873 19.927599 9.3242188 19.935547 C 9.4612233 19.977694 9.5979794 20.005859 9.7246094 20.005859 C 10.26822 20.005859 10.601562 19.710937 10.601562 19.710938 L 10.623047 19.695312 L 12.970703 17.708984 L 15.845703 20.369141 C 15.898217 20.443289 16.309604 21 17.261719 21 C 17.829844 21 18.279025 20.718791 18.566406 20.423828 C 18.853787 20.128866 19.032804 19.82706 19.113281 19.417969 L 19.115234 19.416016 C 19.179414 19.085834 21.931641 5.265625 21.931641 5.265625 L 21.925781 5.2890625 C 22.011441 4.9067171 22.036735 4.5369631 21.935547 4.1601562 C 21.834358 3.7833495 21.561271 3.4156252 21.232422 3.2226562 C 20.903572 3.0296874 20.591699 2.9718046 20.302734 2.984375 z M 19.908203 5.1738281 C 19.799442 5.7198576 17.33401 18.105877 17.181641 18.882812 L 13.029297 15.041016 L 10.222656 17.414062 L 11 14.375 C 11 14.375 16.362547 8.9468594 16.685547 8.6308594 C 16.945547 8.3778594 17 8.2891719 17 8.2011719 C 17 8.0841719 16.939781 8 16.800781 8 C 16.675781 8 16.506016 8.1197812 16.416016 8.1757812 C 15.272368 8.8887854 10.401283 11.664685 8.0058594 13.027344 C 7.8617016 12.96954 5.6973962 12.100458 4.53125 11.634766 C 6.6055146 10.76177 10.161156 9.2658083 13.472656 7.8730469 C 15.210571 7.142109 16.840822 6.4570977 18.070312 5.9414062 C 19.108158 5.5060977 19.649538 5.2807035 19.908203 5.1738281 z M 17.152344 19.025391 C 17.152344 19.025391 17.154297 19.025391 17.154297 19.025391 C 17.154252 19.025621 17.152444 19.03095 17.152344 19.03125 C 17.153615 19.024789 17.15139 19.03045 17.152344 19.025391 z"/>
</symbol>
<symbol id='instagram' viewBox="0 0 32 32" width="32px" height="32px">
<path d="M16,3H8C5.243,3,3,5.243,3,8v8c0,2.757,2.243,5,5,5h8c2.757,0,5-2.243,5-5V8C21,5.243,18.757,3,16,3z M19,16c0,1.654-1.346,3-3,3H8c-1.654,0-3-1.346-3-3V8c0-1.654,1.346-3,3-3h8c1.654,0,3,1.346,3,3V16z"/><path d="M12 7c-2.757 0-5 2.243-5 5s2.243 5 5 5 5-2.243 5-5S14.757 7 12 7zM12 15c-1.654 0-3-1.346-3-3s1.346-3 3-3 3 1.346 3 3S13.654 15 12 15zM17 6A1 1 0 1 0 17 8 1 1 0 1 0 17 6z"/></symbol>

<symbol id='instagram3' viewBox="0 0 40 40">
<path d="M16,3H8C5.243,3,3,5.243,3,8v8c0,2.757,2.243,5,5,5h8c2.757,0,5-2.243,5-5V8C21,5.243,18.757,3,16,3z M19,16c0,1.654-1.346,3-3,3H8c-1.654,0-3-1.346-3-3V8c0-1.654,1.346-3,3-3h8c1.654,0,3,1.346,3,3V16z"/><path d="M12 7c-2.757 0-5 2.243-5 5s2.243 5 5 5 5-2.243 5-5S14.757 7 12 7zM12 15c-1.654 0-3-1.346-3-3s1.346-3 3-3 3 1.346 3 3S13.654 15 12 15zM17 6A1 1 0 1 0 17 8 1 1 0 1 0 17 6z"/></symbol>

<symbol id="twitter" viewBox="0 0 40 40">
    <path d="M26.3438 16.75C26.3646 16.8333 26.375 16.9688 26.375 17.1562C26.375 18.2604 26.1667 19.3646 25.75 20.4688C25.3333 21.5521 24.7396 22.5521 23.9688 23.4688C23.2188 24.3646 22.2396 25.0938 21.0312 25.6562C19.8229 26.2188 18.4896 26.5 17.0312 26.5C15.1979 26.5 13.5208 26.0104 12 25.0312C12.2292 25.0521 12.4896 25.0625 12.7812 25.0625C14.3021 25.0625 15.6667 24.5938 16.875 23.6562C16.1458 23.6562 15.5 23.4479 14.9375 23.0312C14.3958 22.5938 14.0208 22.0521 13.8125 21.4062C14.0208 21.4271 14.2188 21.4375 14.4062 21.4375C14.6979 21.4375 14.9896 21.4062 15.2812 21.3438C14.7812 21.2396 14.3333 21.0312 13.9375 20.7188C13.5417 20.4062 13.2292 20.0312 13 19.5938C12.7708 19.1354 12.6562 18.6458 12.6562 18.125V18.0625C13.1146 18.3333 13.6042 18.4792 14.125 18.5C13.1458 17.8333 12.6562 16.9167 12.6562 15.75C12.6562 15.1667 12.8125 14.6146 13.125 14.0938C13.9375 15.1146 14.9271 15.9271 16.0938 16.5312C17.2812 17.1354 18.5417 17.4688 19.875 17.5312C19.8333 17.2812 19.8125 17.0312 19.8125 16.7812C19.8125 15.8854 20.125 15.1146 20.75 14.4688C21.3958 13.8229 22.1667 13.5 23.0625 13.5C24.0208 13.5 24.8229 13.8438 25.4688 14.5312C26.2188 14.3854 26.9167 14.125 27.5625 13.75C27.3125 14.5208 26.8333 15.125 26.125 15.5625C26.75 15.4792 27.375 15.3021 28 15.0312C27.5417 15.6979 26.9896 16.2708 26.3438 16.75Z"/>
<!-- <circle opacity="0.4" cx="20" cy="20" r="19.5" stroke="white"/> -->
</symbol>

<symbol id='facebook2' iewBox="0 0 40 40">
    <path d="M23.7188 21H21.375V28H18.25V21H15.7188V18.0938H18.25V15.9062C18.25 15.0729 18.4062 14.3646 18.7188 13.7812C19.0312 13.1979 19.4688 12.7604 20.0312 12.4688C20.6146 12.1562 21.2812 12 22.0312 12C22.3646 12 22.7188 12.0208 23.0938 12.0625C23.4688 12.0833 23.7604 12.1146 23.9688 12.1562L24.2812 12.1875V14.6562H23.0312C22.4479 14.6562 22.0208 14.8125 21.75 15.125C21.5 15.4167 21.375 15.7812 21.375 16.2188V18.0938H24.1562L23.7188 21Z" />
<!-- <circle opacity="0.4" cx="20" cy="20" r="19.5" stroke="white"/> -->
</symbol>
<symbol id="instagram2" viewBox="0 0 40 40">
    <path d="M17.4688 17.4688C18.1771 16.7604 19.0312 16.4062 20.0312 16.4062C21.0312 16.4062 21.875 16.7604 22.5625 17.4688C23.2708 18.1562 23.625 19 23.625 20C23.625 21 23.2708 21.8542 22.5625 22.5625C21.875 23.25 21.0312 23.5938 20.0312 23.5938C19.0312 23.5938 18.1771 23.25 17.4688 22.5625C16.7812 21.8542 16.4375 21 16.4375 20C16.4375 19 16.7812 18.1562 17.4688 17.4688ZM18.375 21.6562C18.8333 22.1146 19.3854 22.3438 20.0312 22.3438C20.6771 22.3438 21.2292 22.1146 21.6875 21.6562C22.1458 21.1979 22.375 20.6458 22.375 20C22.375 19.3542 22.1458 18.8021 21.6875 18.3438C21.2292 17.8854 20.6771 17.6562 20.0312 17.6562C19.3854 17.6562 18.8333 17.8854 18.375 18.3438C17.9167 18.8021 17.6875 19.3542 17.6875 20C17.6875 20.6458 17.9167 21.1979 18.375 21.6562ZM24.3438 15.6875C24.5104 15.8333 24.5938 16.0208 24.5938 16.25C24.5938 16.4792 24.5104 16.6771 24.3438 16.8438C24.1979 17.0104 24.0104 17.0938 23.7812 17.0938C23.5521 17.0938 23.3542 17.0104 23.1875 16.8438C23.0208 16.6771 22.9375 16.4792 22.9375 16.25C22.9375 16.0208 23.0208 15.8333 23.1875 15.6875C23.3542 15.5208 23.5521 15.4375 23.7812 15.4375C24.0104 15.4375 24.1979 15.5208 24.3438 15.6875ZM27 17.125C27.0208 17.6875 27.0312 18.6458 27.0312 20C27.0312 21.3542 27.0208 22.3125 27 22.875C26.9375 24.1458 26.5521 25.1354 25.8438 25.8438C25.1562 26.5312 24.1771 26.8958 22.9062 26.9375C22.3438 26.9792 21.3854 27 20.0312 27C18.6771 27 17.7188 26.9792 17.1562 26.9375C15.8854 26.875 14.9062 26.5 14.2188 25.8125C13.9479 25.5625 13.7292 25.2708 13.5625 24.9375C13.3958 24.6042 13.2708 24.2812 13.1875 23.9688C13.125 23.6562 13.0938 23.2917 13.0938 22.875C13.0521 22.3125 13.0312 21.3542 13.0312 20C13.0312 18.6458 13.0521 17.6771 13.0938 17.0938C13.1562 15.8438 13.5312 14.875 14.2188 14.1875C14.9062 13.4792 15.8854 13.0938 17.1562 13.0312C17.7188 13.0104 18.6771 13 20.0312 13C21.3854 13 22.3438 13.0104 22.9062 13.0312C24.1771 13.0938 25.1562 13.4792 25.8438 14.1875C26.5521 14.875 26.9375 15.8542 27 17.125ZM25.5 24.125C25.5625 23.9583 25.6146 23.75 25.6562 23.5C25.6979 23.2292 25.7292 22.9167 25.75 22.5625C25.7708 22.1875 25.7812 21.8854 25.7812 21.6562C25.7812 21.4271 25.7812 21.1042 25.7812 20.6875C25.7812 20.2708 25.7812 20.0417 25.7812 20C25.7812 19.9375 25.7812 19.7083 25.7812 19.3125C25.7812 18.8958 25.7812 18.5729 25.7812 18.3438C25.7812 18.1146 25.7708 17.8229 25.75 17.4688C25.7292 17.0938 25.6979 16.7812 25.6562 16.5312C25.6146 16.2604 25.5625 16.0417 25.5 15.875C25.25 15.2292 24.8021 14.7812 24.1562 14.5312C23.9896 14.4688 23.7708 14.4167 23.5 14.375C23.25 14.3333 22.9375 14.3021 22.5625 14.2812C22.2083 14.2604 21.9167 14.25 21.6875 14.25C21.4792 14.25 21.1562 14.25 20.7188 14.25C20.3021 14.25 20.0729 14.25 20.0312 14.25C19.9896 14.25 19.7604 14.25 19.3438 14.25C18.9271 14.25 18.6042 14.25 18.375 14.25C18.1458 14.25 17.8438 14.2604 17.4688 14.2812C17.1146 14.3021 16.8021 14.3333 16.5312 14.375C16.2812 14.4167 16.0729 14.4688 15.9062 14.5312C15.2604 14.7812 14.8125 15.2292 14.5625 15.875C14.5 16.0417 14.4479 16.2604 14.4062 16.5312C14.3646 16.7812 14.3333 17.0938 14.3125 17.4688C14.2917 17.8229 14.2812 18.1146 14.2812 18.3438C14.2812 18.5521 14.2812 18.875 14.2812 19.3125C14.2812 19.7292 14.2812 19.9583 14.2812 20C14.2812 20.0833 14.2812 20.2812 14.2812 20.5938C14.2812 20.8854 14.2812 21.1354 14.2812 21.3438C14.2812 21.5312 14.2812 21.7812 14.2812 22.0938C14.3021 22.4062 14.3229 22.6771 14.3438 22.9062C14.3646 23.1146 14.3958 23.3333 14.4375 23.5625C14.4792 23.7917 14.5208 23.9792 14.5625 24.125C14.8333 24.7708 15.2812 25.2188 15.9062 25.4688C16.0729 25.5312 16.2812 25.5833 16.5312 25.625C16.8021 25.6667 17.1146 25.6979 17.4688 25.7188C17.8438 25.7396 18.1354 25.75 18.3438 25.75C18.5729 25.75 18.8958 25.75 19.3125 25.75C19.75 25.75 19.9896 25.75 20.0312 25.75C20.0938 25.75 20.3229 25.75 20.7188 25.75C21.1354 25.75 21.4583 25.75 21.6875 25.75C21.9167 25.75 22.2083 25.7396 22.5625 25.7188C22.9375 25.6979 23.25 25.6667 23.5 25.625C23.7708 25.5833 23.9896 25.5312 24.1562 25.4688C24.8021 25.1979 25.25 24.75 25.5 24.125Z"/>
<!-- <circle opacity="0.4" cx="20" cy="20" r="19.5" stroke="white"/> -->
</symbol>
<symbol id="telegram" viewBox="0 0 40 40">
<path fill="none" stroke="#000000" stroke-miterlimit="10" stroke-width="2" d="M43.361,7.242	C42.077,7.758,5.633,23.389,5.633,23.389s-1.765,0.614-1.625,1.748s1.58,1.653,1.58,1.653l9.38,3.212c0,0,2.832,9.448,3.39,11.241	c0.558,1.796,1.004,1.838,1.004,1.838c0.518,0.23,0.992-0.137,0.992-0.137l6.061-5.622l9.448,7.369	c2.554,1.134,3.483-1.228,3.483-1.228l6.509-33.925C46.431,6.913,44.717,6.699,43.361,7.242z"/><polyline fill="none" stroke="#000000" stroke-linecap="round" stroke-linejoin="round" stroke-miterlimit="10" stroke-width="2" points="15,30 39,14 22,34"/>
</symbol>

<symbol id="telegram2" viewBox="-15 -15 60 60">
<path d="M 26.070313 3.996094 C 25.734375 4.011719 25.417969 4.109375 25.136719 4.21875 L 25.132813 4.21875 C 24.847656 4.332031 23.492188 4.902344 21.433594 5.765625 C 19.375 6.632813 16.703125 7.757813 14.050781 8.875 C 8.753906 11.105469 3.546875 13.300781 3.546875 13.300781 L 3.609375 13.277344 C 3.609375 13.277344 3.25 13.394531 2.875 13.652344 C 2.683594 13.777344 2.472656 13.949219 2.289063 14.21875 C 2.105469 14.488281 1.957031 14.902344 2.011719 15.328125 C 2.101563 16.050781 2.570313 16.484375 2.90625 16.722656 C 3.246094 16.964844 3.570313 17.078125 3.570313 17.078125 L 3.578125 17.078125 L 8.460938 18.722656 C 8.679688 19.425781 9.949219 23.597656 10.253906 24.558594 C 10.433594 25.132813 10.609375 25.492188 10.828125 25.765625 C 10.933594 25.90625 11.058594 26.023438 11.207031 26.117188 C 11.265625 26.152344 11.328125 26.179688 11.390625 26.203125 C 11.410156 26.214844 11.429688 26.21875 11.453125 26.222656 L 11.402344 26.210938 C 11.417969 26.214844 11.429688 26.226563 11.441406 26.230469 C 11.480469 26.242188 11.507813 26.246094 11.558594 26.253906 C 12.332031 26.488281 12.953125 26.007813 12.953125 26.007813 L 12.988281 25.980469 L 15.871094 23.355469 L 20.703125 27.0625 L 20.8125 27.109375 C 21.820313 27.550781 22.839844 27.304688 23.378906 26.871094 C 23.921875 26.433594 24.132813 25.875 24.132813 25.875 L 24.167969 25.785156 L 27.902344 6.65625 C 28.007813 6.183594 28.035156 5.742188 27.917969 5.3125 C 27.800781 4.882813 27.5 4.480469 27.136719 4.265625 C 26.769531 4.046875 26.40625 3.980469 26.070313 3.996094 Z M 25.96875 6.046875 C 25.964844 6.109375 25.976563 6.101563 25.949219 6.222656 L 25.949219 6.234375 L 22.25 25.164063 C 22.234375 25.191406 22.207031 25.25 22.132813 25.308594 C 22.054688 25.371094 21.992188 25.410156 21.667969 25.28125 L 15.757813 20.75 L 12.1875 24.003906 L 12.9375 19.214844 C 12.9375 19.214844 22.195313 10.585938 22.59375 10.214844 C 22.992188 9.84375 22.859375 9.765625 22.859375 9.765625 C 22.886719 9.3125 22.257813 9.632813 22.257813 9.632813 L 10.082031 17.175781 L 10.078125 17.15625 L 4.242188 15.191406 L 4.242188 15.1875 C 4.238281 15.1875 4.230469 15.183594 4.226563 15.183594 C 4.230469 15.183594 4.257813 15.171875 4.257813 15.171875 L 4.289063 15.15625 L 4.320313 15.144531 C 4.320313 15.144531 9.53125 12.949219 14.828125 10.71875 C 17.480469 9.601563 20.152344 8.476563 22.207031 7.609375 C 24.261719 6.746094 25.78125 6.113281 25.867188 6.078125 C 25.949219 6.046875 25.910156 6.046875 25.96875 6.046875 Z"/>
</symbol>
</svg>